<mxfile host="drawio-plugin" modified="2023-12-04T00:01:00.991Z" agent="5.0 (Macintosh; Intel Mac OS X 10_15_7) AppleWebKit/537.36 (KHTML, like Gecko) Chrome/111.0.0.0 Safari/537.36" etag="v8ApjqcijY5sKSxWgQj_" version="20.5.3" type="embed"><diagram name="Страница — 1" id="kYwDznEXY4-J3VB-H3dX"><mxGraphModel dx="837" dy="770" grid="1" gridSize="10" guides="1" tooltips="1" connect="1" arrows="1" fold="1" page="1" pageScale="1" pageWidth="850" pageHeight="1100" math="0" shadow="0"><root><mxCell id="0"/><mxCell id="1" parent="0"/><mxCell id="5" value="" style="edgeStyle=orthogonalEdgeStyle;rounded=0;orthogonalLoop=1;jettySize=auto;html=1;" parent="1" source="3" target="4" edge="1"><mxGeometry relative="1" as="geometry"/></mxCell><mxCell id="3" value="Начало поиска комбинации" style="rounded=1;whiteSpace=wrap;html=1;" parent="1" vertex="1"><mxGeometry x="267.5" y="90" width="250" height="60" as="geometry"/></mxCell><mxCell id="11" value="" style="edgeStyle=orthogonalEdgeStyle;rounded=0;orthogonalLoop=1;jettySize=auto;html=1;" parent="1" source="4" target="10" edge="1"><mxGeometry relative="1" as="geometry"/></mxCell><mxCell id="13" value="" style="edgeStyle=orthogonalEdgeStyle;rounded=0;orthogonalLoop=1;jettySize=auto;html=1;" parent="1" source="4" target="12" edge="1"><mxGeometry relative="1" as="geometry"/></mxCell><mxCell id="4" value="Нашли комбинацию?" style="rhombus;whiteSpace=wrap;html=1;rounded=1;" parent="1" vertex="1"><mxGeometry x="340" y="200" width="105" height="140" as="geometry"/></mxCell><mxCell id="9" value="" style="edgeStyle=orthogonalEdgeStyle;rounded=0;orthogonalLoop=1;jettySize=auto;html=1;exitX=0.5;exitY=1;exitDx=0;exitDy=0;" parent="1" target="8" edge="1" source="10"><mxGeometry relative="1" as="geometry"><mxPoint x="577.5" y="330" as="sourcePoint"/></mxGeometry></mxCell><mxCell id="8" value="Бросаем исключение." style="whiteSpace=wrap;html=1;rounded=1;" parent="1" vertex="1"><mxGeometry x="517.5" y="410" width="120" height="60" as="geometry"/></mxCell><mxCell id="10" value="Нет&lt;br&gt;" style="whiteSpace=wrap;html=1;rounded=1;" parent="1" vertex="1"><mxGeometry x="517.5" y="240" width="120" height="60" as="geometry"/></mxCell><mxCell id="15" value="" style="edgeStyle=orthogonalEdgeStyle;rounded=0;orthogonalLoop=1;jettySize=auto;html=1;" parent="1" source="12" target="14" edge="1"><mxGeometry relative="1" as="geometry"/></mxCell><mxCell id="12" value="Да" style="whiteSpace=wrap;html=1;rounded=1;" parent="1" vertex="1"><mxGeometry x="147.5" y="240" width="120" height="60" as="geometry"/></mxCell><mxCell id="14" value="Возвращаем объект FinalCombination." style="rounded=1;whiteSpace=wrap;html=1;" parent="1" vertex="1"><mxGeometry x="147.5" y="420" width="120" height="60" as="geometry"/></mxCell><mxCell id="16" value="&lt;h1&gt;Объект FinalCombination&lt;/h1&gt;&lt;p&gt;Содержит в себе итоговую комбинацию. Тип комбинации и карты, которые ее составляют.&lt;/p&gt;" style="text;html=1;strokeColor=none;fillColor=none;spacing=5;spacingTop=-20;whiteSpace=wrap;overflow=hidden;rounded=0;" parent="1" vertex="1"><mxGeometry x="20" y="520" width="220" height="150" as="geometry"/></mxCell></root></mxGraphModel></diagram></mxfile>